%TF.GenerationSoftware,Altium Limited,Altium Designer,25.8.1 (18)*%
G04 Layer_Color=0*
%FSLAX45Y45*%
%MOMM*%
%TF.SameCoordinates,EC028739-CD86-4312-A7B0-E8046A42660A*%
%TF.FilePolarity,Positive*%
%TF.FileFunction,Plated,1,4,PTH,Drill*%
%TF.Part,Single*%
G01*
G75*
%TA.AperFunction,ComponentDrill*%
%ADD111C,1.30000*%
%ADD112C,1.06680*%
%ADD113C,1.02000*%
%ADD114C,1.10000*%
%ADD115C,1.06680*%
%TA.AperFunction,ViaDrill,NotFilled*%
%ADD116C,0.30480*%
D111*
X2123440Y457200D02*
D03*
X1615440D02*
D03*
X1107440D02*
D03*
X599440D02*
D03*
D112*
X190500Y5016500D02*
D03*
Y2222500D02*
D03*
Y2476500D02*
D03*
Y2730500D02*
D03*
Y2984500D02*
D03*
Y3238500D02*
D03*
Y3492500D02*
D03*
Y3746500D02*
D03*
Y4000500D02*
D03*
Y4254500D02*
D03*
Y4508500D02*
D03*
Y4762500D02*
D03*
D113*
X513080Y4020820D02*
D03*
Y3258820D02*
D03*
Y3512820D02*
D03*
Y3766820D02*
D03*
D114*
X3743960Y2651760D02*
D03*
X3741420Y1531620D02*
D03*
X3743960Y2905760D02*
D03*
Y2397760D02*
D03*
X482600Y2349500D02*
D03*
Y2603500D02*
D03*
Y2857500D02*
D03*
X3741420Y1785620D02*
D03*
Y2039620D02*
D03*
D115*
X3048000Y5016500D02*
D03*
X3302000D02*
D03*
X2794000D02*
D03*
X2540000D02*
D03*
X2286000D02*
D03*
X2032000D02*
D03*
X1778000D02*
D03*
X1524000D02*
D03*
X1270000D02*
D03*
X1016000D02*
D03*
X762000D02*
D03*
X508000D02*
D03*
D116*
X1409700Y4602480D02*
D03*
X1404620Y4427220D02*
D03*
X1770380Y3901440D02*
D03*
X1739900Y3789680D02*
D03*
X1778000Y4231640D02*
D03*
X2270760Y3789680D02*
D03*
X2250440Y4239260D02*
D03*
X744220Y4577080D02*
D03*
X1831770Y4681650D02*
D03*
X1277620Y3091180D02*
D03*
X1038860Y2250440D02*
D03*
X414020Y1968500D02*
D03*
X2491740Y2794000D02*
D03*
X2735580Y4625340D02*
D03*
X1375042Y1640840D02*
D03*
X1965960Y1968500D02*
D03*
X2955290Y2551430D02*
D03*
X2767500Y3090080D02*
D03*
X2486660Y2288540D02*
D03*
X3261360Y1897380D02*
D03*
X2661920Y1960880D02*
D03*
X3817620Y5107940D02*
D03*
X3522980Y3799840D02*
D03*
X3162322Y3794760D02*
D03*
X2880360Y4417060D02*
D03*
X2296160Y2865190D02*
D03*
X1915160Y2712720D02*
D03*
X3746500Y571500D02*
D03*
X3865880D02*
D03*
X3421380D02*
D03*
X3609340D02*
D03*
X3867157Y435400D02*
D03*
X3747777D02*
D03*
X3865880Y317500D02*
D03*
X3610617Y435400D02*
D03*
X3746500Y317500D02*
D03*
X3865880Y200660D02*
D03*
Y78740D02*
D03*
X3746500Y200660D02*
D03*
Y78740D02*
D03*
X3609340Y317500D02*
D03*
X3422657Y435400D02*
D03*
X3421380Y317500D02*
D03*
X3609340Y200660D02*
D03*
Y78740D02*
D03*
X3421380Y200660D02*
D03*
Y78740D02*
D03*
X2860040Y685800D02*
D03*
X3247397Y435400D02*
D03*
X3246120Y317500D02*
D03*
Y571500D02*
D03*
X3059437Y435400D02*
D03*
X3246120Y200660D02*
D03*
Y78740D02*
D03*
X3058160Y200660D02*
D03*
Y78740D02*
D03*
Y685800D02*
D03*
Y571500D02*
D03*
X2860040D02*
D03*
X2861317Y435400D02*
D03*
X3058160Y317500D02*
D03*
X2860040Y78740D02*
D03*
Y317500D02*
D03*
Y200660D02*
D03*
X1696720Y4607560D02*
D03*
X1122680Y3527851D02*
D03*
X1419860Y2943860D02*
D03*
X1218400Y2185200D02*
D03*
X340360Y4937760D02*
D03*
X1036553Y2364507D02*
D03*
X619760Y3121660D02*
D03*
X355600Y4105112D02*
D03*
X558800Y1864360D02*
D03*
X546100Y1277620D02*
D03*
X774700Y137160D02*
D03*
X586740Y127000D02*
D03*
X154940Y1884680D02*
D03*
X220980Y449580D02*
D03*
X213360Y749300D02*
D03*
X190500Y261620D02*
D03*
X3462020Y4787900D02*
D03*
X1539240Y1600200D02*
D03*
X1849120Y2418080D02*
D03*
X1087120Y1846580D02*
D03*
X1628140Y2334260D02*
D03*
X1701800Y2489200D02*
D03*
X1516640Y2032000D02*
D03*
X3375660Y1922780D02*
D03*
X3899529Y4050692D02*
D03*
X3303816Y1225080D02*
D03*
X3168823Y1227620D02*
D03*
X3055620Y1236980D02*
D03*
X2961640Y1234440D02*
D03*
X2865120Y1231900D02*
D03*
X2118360Y632460D02*
D03*
X2077720Y711200D02*
D03*
X2118360Y516890D02*
D03*
X2125980Y375920D02*
D03*
X734060Y1747520D02*
D03*
X512040Y1548360D02*
D03*
X609620Y1671340D02*
D03*
X3760628Y784860D02*
D03*
X3870960D02*
D03*
X3680460Y787400D02*
D03*
X3817620Y962660D02*
D03*
X2369820Y4648200D02*
D03*
X2552700Y4668520D02*
D03*
X1003300Y2639060D02*
D03*
X3375660Y1813560D02*
D03*
X3467100Y4383500D02*
D03*
X2956560Y3939540D02*
D03*
X886460Y4897120D02*
D03*
X358140Y182880D02*
D03*
X3530600Y5080000D02*
D03*
X3647440Y5110480D02*
D03*
X3604260Y4173220D02*
D03*
X3509927Y4102579D02*
D03*
X2583180Y4551680D02*
D03*
X3484880Y4942840D02*
D03*
X683260Y2199640D02*
D03*
X1925985Y2798399D02*
D03*
X3230880Y4511040D02*
D03*
X3863340Y4828540D02*
D03*
X1368593Y2359660D02*
D03*
X1802933Y2757710D02*
D03*
X1689100Y2684780D02*
D03*
X1315050Y2594161D02*
D03*
X1036320Y2090420D02*
D03*
X1135380Y2072640D02*
D03*
X571500Y1960880D02*
D03*
X1440218Y2423600D02*
D03*
X1681480Y3434080D02*
D03*
X2063152Y3383856D02*
D03*
X1549400Y3975100D02*
D03*
X1675361Y3290339D02*
D03*
X1776616Y3430167D02*
D03*
X1856474Y3397292D02*
D03*
X1926539Y3346806D02*
D03*
X1950720Y3263900D02*
D03*
X1633220Y2936240D02*
D03*
X1366520Y2684780D02*
D03*
X1479550Y2661920D02*
D03*
X1963420Y3172460D02*
D03*
X1890088Y2876945D02*
D03*
%TF.MD5,4ae1a36db27f8f63984a72590d905fa6*%
M02*
