%TF.GenerationSoftware,Altium Limited,Altium Designer,25.8.1 (18)*%
G04 Layer_Physical_Order=1*
G04 Layer_Color=255*
%FSLAX45Y45*%
%MOMM*%
%TF.SameCoordinates,EC028739-CD86-4312-A7B0-E8046A42660A*%
%TF.FilePolarity,Positive*%
%TF.FileFunction,Copper,L1,Top,Signal*%
%TF.Part,Single*%
G01*
G75*
%TA.AperFunction,SMDPad,CuDef*%
%ADD10R,3.70000X1.10000*%
%ADD11R,0.80000X1.40000*%
%TA.AperFunction,ConnectorPad*%
%ADD12R,0.50000X0.60000*%
%TA.AperFunction,SMDPad,CuDef*%
%ADD13R,0.55000X0.55000*%
%ADD14R,1.60000X1.00000*%
G04:AMPARAMS|DCode=15|XSize=1.55mm|YSize=0.6mm|CornerRadius=0.051mm|HoleSize=0mm|Usage=FLASHONLY|Rotation=270.000|XOffset=0mm|YOffset=0mm|HoleType=Round|Shape=RoundedRectangle|*
%AMROUNDEDRECTD15*
21,1,1.55000,0.49800,0,0,270.0*
21,1,1.44800,0.60000,0,0,270.0*
1,1,0.10200,-0.24900,-0.72400*
1,1,0.10200,-0.24900,0.72400*
1,1,0.10200,0.24900,0.72400*
1,1,0.10200,0.24900,-0.72400*
%
%ADD15ROUNDEDRECTD15*%
%ADD16R,0.78000X0.78000*%
%ADD17R,2.10000X1.40000*%
%ADD18R,1.20000X0.30000*%
%ADD19R,0.74000X2.79000*%
%ADD20R,0.50000X0.50000*%
%ADD21R,0.50000X0.50000*%
%ADD22R,0.50300X0.35600*%
%ADD23R,0.80000X0.80000*%
%ADD24R,0.30000X1.20000*%
%ADD25R,1.10000X1.30000*%
%ADD26R,0.50000X0.60000*%
%ADD27R,1.25000X1.00000*%
%ADD28R,0.60000X0.50000*%
%ADD29R,0.80000X1.05000*%
%ADD30R,0.50000X0.45000*%
%ADD31R,0.45720X1.00330*%
%ADD32R,0.45000X0.50000*%
%ADD33R,1.25000X2.50000*%
%ADD34R,0.60000X0.55000*%
%ADD35R,3.70000X2.44000*%
%ADD36R,0.95000X0.70000*%
%ADD37R,1.45000X1.15000*%
%ADD38R,0.75000X0.90000*%
%ADD39R,1.30000X1.60000*%
%ADD40R,0.90000X0.80000*%
G04:AMPARAMS|DCode=41|XSize=0.9mm|YSize=1.75mm|CornerRadius=0.0495mm|HoleSize=0mm|Usage=FLASHONLY|Rotation=0.000|XOffset=0mm|YOffset=0mm|HoleType=Round|Shape=RoundedRectangle|*
%AMROUNDEDRECTD41*
21,1,0.90000,1.65100,0,0,0.0*
21,1,0.80100,1.75000,0,0,0.0*
1,1,0.09900,0.40050,-0.82550*
1,1,0.09900,-0.40050,-0.82550*
1,1,0.09900,-0.40050,0.82550*
1,1,0.09900,0.40050,0.82550*
%
%ADD41ROUNDEDRECTD41*%
G04:AMPARAMS|DCode=42|XSize=3.2mm|YSize=1.75mm|CornerRadius=0.0525mm|HoleSize=0mm|Usage=FLASHONLY|Rotation=0.000|XOffset=0mm|YOffset=0mm|HoleType=Round|Shape=RoundedRectangle|*
%AMROUNDEDRECTD42*
21,1,3.20000,1.64500,0,0,0.0*
21,1,3.09500,1.75000,0,0,0.0*
1,1,0.10500,1.54750,-0.82250*
1,1,0.10500,-1.54750,-0.82250*
1,1,0.10500,-1.54750,0.82250*
1,1,0.10500,1.54750,0.82250*
%
%ADD42ROUNDEDRECTD42*%
%ADD43R,2.18440X2.18440*%
%ADD44R,0.55000X0.55000*%
%ADD45R,0.47247X0.55964*%
%ADD46R,0.40000X0.48000*%
%TA.AperFunction,ConnectorPad*%
%ADD47R,1.55000X1.42500*%
%ADD48R,1.30000X1.65000*%
%ADD49R,1.90000X1.80000*%
%ADD50R,1.38000X0.45000*%
%ADD51R,1.90000X1.00000*%
%ADD52R,1.25000X2.50000*%
%TA.AperFunction,SMDPad,CuDef*%
%ADD53R,3.15000X1.68000*%
%TA.AperFunction,TestPad*%
%ADD54C,1.00000*%
%TA.AperFunction,SMDPad,CuDef*%
%ADD55R,0.45000X0.45000*%
%ADD56R,0.60000X0.60000*%
%ADD57R,0.50000X0.47500*%
%ADD58R,1.16840X2.20980*%
%ADD59R,1.11760X1.34620*%
%ADD60R,0.45000X0.45000*%
%ADD61R,0.50000X0.55000*%
%ADD62R,2.00660X0.66040*%
%TA.AperFunction,Conductor*%
%ADD63C,0.20320*%
%ADD64C,0.38100*%
%ADD65C,0.76200*%
%ADD66C,0.50800*%
%ADD67C,0.25400*%
%ADD68C,0.63500*%
%ADD69C,0.45720*%
%ADD70C,0.88900*%
%ADD71C,1.27000*%
%ADD72C,1.01600*%
%ADD73C,0.30480*%
%TA.AperFunction,ComponentPad*%
%ADD74C,1.95000*%
%ADD75R,1.95000X1.95000*%
%ADD76C,1.57480*%
%ADD77R,1.57000X1.57000*%
%ADD78C,1.60000*%
%ADD79C,1.57000*%
G04:AMPARAMS|DCode=80|XSize=1.6mm|YSize=1.6mm|CornerRadius=0.4mm|HoleSize=0mm|Usage=FLASHONLY|Rotation=270.000|XOffset=0mm|YOffset=0mm|HoleType=Round|Shape=RoundedRectangle|*
%AMROUNDEDRECTD80*
21,1,1.60000,0.80000,0,0,270.0*
21,1,0.80000,1.60000,0,0,270.0*
1,1,0.80000,-0.40000,-0.40000*
1,1,0.80000,-0.40000,0.40000*
1,1,0.80000,0.40000,0.40000*
1,1,0.80000,0.40000,-0.40000*
%
%ADD80ROUNDEDRECTD80*%
%TA.AperFunction,ViaPad*%
%ADD81C,0.60960*%
G36*
X1275840Y2386360D02*
X1276656Y2366378D01*
Y2309647D01*
X1278627Y2299736D01*
X1282700Y2293641D01*
Y2237740D01*
X1125220D01*
X1112920Y2225440D01*
X1102760D01*
Y2215280D01*
X1097280Y2209800D01*
X1010920D01*
Y2278380D01*
X1041167Y2308627D01*
X1047668D01*
X1068207Y2317134D01*
X1083926Y2332853D01*
X1092433Y2353391D01*
Y2365449D01*
X1104424Y2377440D01*
X1104900D01*
X1105213Y2377753D01*
X1200600D01*
X1215466Y2380711D01*
X1223921Y2386360D01*
X1275840D01*
D02*
G37*
G36*
X517520Y2093575D02*
Y1989460D01*
X517520D01*
X515620Y1971995D01*
X515620Y1969927D01*
Y1949765D01*
X499543Y1935480D01*
X376792D01*
X360680Y1945640D01*
Y2095500D01*
X377263Y2112083D01*
Y2112987D01*
X515327D01*
X517520Y2093575D01*
D02*
G37*
G36*
X793793Y1721108D02*
X576592Y1503907D01*
X492760D01*
X491634Y1503683D01*
X462560D01*
Y1512440D01*
X461587D01*
Y1571960D01*
X462560D01*
Y1692045D01*
X480380Y1698080D01*
Y1698080D01*
X571180D01*
Y1792881D01*
X615080D01*
Y1776800D01*
X658466D01*
X665480Y1775405D01*
X672494Y1776800D01*
X715880D01*
Y1793480D01*
X793793D01*
Y1721108D01*
D02*
G37*
G36*
X203600Y1830000D02*
X209315D01*
Y1757680D01*
X270183D01*
X275613Y1752250D01*
X288215Y1743829D01*
X303081Y1740872D01*
X429133D01*
Y1586731D01*
X221231D01*
Y1303178D01*
X12850D01*
X10160Y1322384D01*
Y1906667D01*
X27177Y1914643D01*
X125224D01*
Y1919390D01*
X203600D01*
Y1830000D01*
D02*
G37*
G36*
X1150232Y1739511D02*
Y1691240D01*
X1148480D01*
Y1668278D01*
X1145046Y1663139D01*
X1140610Y1640840D01*
X1145046Y1618541D01*
X1148480Y1613402D01*
Y1590440D01*
X1150232D01*
Y1587888D01*
X1158240Y1579880D01*
X1216660D01*
Y1511300D01*
X1211580Y1506220D01*
X1222550Y1495250D01*
Y1073222D01*
X608402D01*
X606835Y1092893D01*
Y1352277D01*
X620916D01*
X917892Y1649254D01*
Y1722082D01*
X926906Y1739598D01*
X1150196D01*
X1150232Y1739511D01*
D02*
G37*
G36*
X834618Y59573D02*
X807129Y32085D01*
X39571D01*
X20540Y51115D01*
Y919576D01*
X24770Y939200D01*
X43338Y943429D01*
X834618D01*
Y59573D01*
D02*
G37*
G36*
X2159000Y2237740D02*
X1986280D01*
X1983740Y2235200D01*
Y2166620D01*
X1967570Y2156600D01*
X1892692D01*
Y2299092D01*
X1897380Y2303780D01*
Y2381600D01*
X2159000D01*
Y2237740D01*
D02*
G37*
G36*
X3561080Y3175000D02*
Y2040735D01*
X3551985Y2031640D01*
X3427460D01*
Y2014917D01*
X3420359D01*
X3416857Y2014220D01*
X3169920D01*
Y2098040D01*
X3171018Y2099138D01*
Y3163314D01*
X3456852D01*
X3466762Y3165286D01*
X3475164Y3170899D01*
X3481207Y3176942D01*
X3481606Y3177540D01*
X3558540D01*
X3561080Y3175000D01*
D02*
G37*
G36*
X2829606Y1811210D02*
X3240758D01*
Y1481840D01*
X3246359Y1476239D01*
X3230675Y1460555D01*
X1979294D01*
X1964730Y1475119D01*
Y1807850D01*
X1965960Y1808480D01*
X1969811Y1812331D01*
X2826245D01*
X2827365Y1813451D01*
X2829606Y1811210D01*
D02*
G37*
G36*
X3423259Y1280821D02*
Y1210706D01*
X3422422Y1206500D01*
Y1107422D01*
X3422108Y1105840D01*
X3415710Y1086395D01*
X3335745D01*
X3335020Y1087120D01*
X3333968Y1086068D01*
X3323768Y1084039D01*
X3313729Y1077331D01*
X3307021Y1067292D01*
X3304665Y1055450D01*
Y890350D01*
X3307021Y878508D01*
X3309620Y874619D01*
Y784860D01*
X3292250Y777738D01*
X2827020D01*
X2819400Y776222D01*
X2811895Y778118D01*
X2799080Y783896D01*
Y1262380D01*
X2816244Y1270000D01*
X2819400D01*
X2839720Y1290320D01*
X3413760D01*
X3423259Y1280821D01*
D02*
G37*
G36*
X3926840Y661273D02*
X3906520Y651140D01*
X3906271Y651306D01*
X3896360Y653278D01*
X3448822D01*
X3446780Y655320D01*
Y1099680D01*
X3448320D01*
Y1206500D01*
X3926840D01*
Y661273D01*
D02*
G37*
G36*
X3406140Y642620D02*
X3423920Y624840D01*
X3426460Y627380D01*
X3896360D01*
X3914140Y609600D01*
Y35560D01*
X2841644D01*
X2824480Y43180D01*
Y749300D01*
X2827020Y751840D01*
X3406140D01*
Y642620D01*
D02*
G37*
G36*
X2394722Y35561D02*
X2394722Y35560D01*
X1970839D01*
X1953260Y53139D01*
Y1412240D01*
X1972700Y1414440D01*
X2394722D01*
Y35561D01*
D02*
G37*
G36*
X2768343Y1411983D02*
Y746476D01*
X2791744D01*
X2798738Y739482D01*
Y33592D01*
X2421436D01*
X2420620Y35560D01*
Y1417320D01*
X2766133D01*
X2768343Y1411983D01*
D02*
G37*
G36*
X3928395Y4931918D02*
X3741918D01*
Y5163820D01*
X3740197Y5172472D01*
X3740209Y5174159D01*
X3751649Y5192792D01*
X3928395D01*
Y4931918D01*
D02*
G37*
G36*
X3716020Y4912796D02*
X3710940Y4894580D01*
D01*
Y4734560D01*
X3703320Y4726940D01*
X3530600D01*
Y4892040D01*
X3531652Y4894580D01*
X3426460D01*
Y5141651D01*
X3429001Y5161280D01*
X3448268Y5163820D01*
X3716020D01*
Y4912796D01*
D02*
G37*
G36*
X3395980Y4628875D02*
X3370580D01*
X3350996Y4624980D01*
X3320180D01*
Y4617720D01*
X3319780D01*
Y4585752D01*
X3317240Y4584700D01*
X3154680D01*
Y4591657D01*
X3143648Y4584700D01*
X2941320D01*
Y4747260D01*
Y4780280D01*
X2942701Y4781661D01*
X3020408D01*
X3023926Y4779310D01*
X3038792Y4776353D01*
X3050900D01*
Y4767300D01*
X3146700D01*
X3150800Y4748678D01*
Y4724800D01*
X3194186D01*
X3201200Y4723405D01*
X3208215Y4724800D01*
X3251600D01*
Y4768186D01*
X3252995Y4775200D01*
Y4863300D01*
X3249053Y4883121D01*
X3237825Y4899925D01*
X3148509Y4989240D01*
X3152140Y5002790D01*
Y5030210D01*
X3145043Y5056697D01*
X3136900Y5070801D01*
Y5168900D01*
X3395980D01*
Y4628875D01*
D02*
G37*
G36*
X1958340Y4917440D02*
X1960880Y4916388D01*
Y4702015D01*
X1879125Y4620260D01*
X1762760D01*
Y4660900D01*
X1760220Y4663440D01*
X1762760Y4665980D01*
Y4911186D01*
X1764290Y4912360D01*
X1791710D01*
X1810669Y4917440D01*
X1958340D01*
D02*
G37*
G36*
X2915422Y4594860D02*
X2692836D01*
X2674620Y4599940D01*
Y4621767D01*
X2675965Y4628528D01*
X2675965Y4628529D01*
Y4761305D01*
X2677160Y4762500D01*
X2915422D01*
Y4594860D01*
D02*
G37*
G36*
X924560Y4551680D02*
X927100Y4549140D01*
X911860Y4533900D01*
X754342D01*
X751840Y4534398D01*
X441960D01*
X421640Y4540549D01*
Y4632960D01*
X426780Y4638100D01*
X627900D01*
Y4643120D01*
X924560D01*
Y4551680D01*
D02*
G37*
G36*
X3641020Y4696727D02*
Y4520947D01*
X3636214Y4513754D01*
X3634242Y4503844D01*
Y4434574D01*
X3489817D01*
X3478215Y4439380D01*
X3455985D01*
X3444464Y4434608D01*
X3425640Y4442381D01*
Y4699045D01*
X3639118D01*
X3641020Y4696727D01*
D02*
G37*
G36*
X3934576Y4775249D02*
X3930858Y4771531D01*
X3934200Y4768190D01*
Y4299544D01*
X3926864Y4293524D01*
X3884930D01*
X3875019Y4291553D01*
X3866618Y4285939D01*
X3861004Y4277537D01*
X3860853Y4276778D01*
X3679914D01*
X3660140Y4278096D01*
X3660140Y4297970D01*
Y4503844D01*
X3666917Y4510621D01*
Y4696728D01*
X3695212D01*
X3699527Y4701042D01*
X3703320D01*
X3713231Y4703014D01*
X3721632Y4708628D01*
X3729252Y4716247D01*
X3734866Y4724649D01*
X3736837Y4734560D01*
Y4891036D01*
X3740966Y4905839D01*
X3740979Y4906021D01*
X3934576D01*
Y4775249D01*
D02*
G37*
G36*
X3926864Y4117410D02*
X3910644Y4106572D01*
X3888414D01*
X3867876Y4098065D01*
X3862987Y4093176D01*
X3761369D01*
X3746503Y4090219D01*
X3743860Y4088453D01*
X3560614D01*
Y4197350D01*
X3564600D01*
Y4267626D01*
X3633470D01*
Y4250880D01*
X3884930D01*
Y4267626D01*
X3926864D01*
Y4117410D01*
D02*
G37*
G36*
X759460Y4500880D02*
Y4122420D01*
X616980D01*
Y4124720D01*
X409180D01*
X392580Y4133700D01*
X384810Y4141470D01*
X399497Y4392060D01*
X417760D01*
Y4481760D01*
X441960Y4505960D01*
Y4508500D01*
X751840D01*
X759460Y4500880D01*
D02*
G37*
G36*
X2914650Y4070350D02*
X3077210D01*
X3088440Y4054682D01*
Y3974660D01*
X3000900D01*
Y3868860D01*
X3012440D01*
Y3831372D01*
X3009900Y3830320D01*
X2862580D01*
Y4057699D01*
X2862580Y4071620D01*
X2880796Y4076700D01*
X2914650D01*
Y4070350D01*
D02*
G37*
G36*
X2478417Y3706878D02*
X3175319D01*
X3177589Y3704608D01*
X3179102Y3706121D01*
X3462894D01*
Y3195254D01*
X3456852Y3189212D01*
X3012703D01*
X3010689Y3187198D01*
X3008675Y3189212D01*
X2720633D01*
X2646680Y3263165D01*
Y3275330D01*
X2583151D01*
X2546398Y3312083D01*
X2426548D01*
X2377440Y3361191D01*
Y3708400D01*
X2476895D01*
X2478417Y3706878D01*
D02*
G37*
%LPC*%
G36*
X369255Y238760D02*
X347025D01*
X326487Y230253D01*
X310767Y214533D01*
X302260Y193995D01*
Y171765D01*
X310767Y151227D01*
X326487Y135507D01*
X347025Y127000D01*
X369255D01*
X389793Y135507D01*
X405513Y151227D01*
X414020Y171765D01*
Y193995D01*
X405513Y214533D01*
X389793Y230253D01*
X369255Y238760D01*
D02*
G37*
%LPD*%
D10*
X3266440Y3391040D02*
D03*
Y3091040D02*
D03*
D11*
X3628400Y4800600D02*
D03*
X3788400D02*
D03*
D12*
X3842220Y3975100D02*
D03*
X3742220D02*
D03*
D13*
X1378050Y2049780D02*
D03*
X1288050D02*
D03*
D14*
X1841500Y1239540D02*
D03*
Y1559540D02*
D03*
D15*
X1539240Y1256540D02*
D03*
X1412240D02*
D03*
Y1796540D02*
D03*
X1539240D02*
D03*
X1285240Y1256540D02*
D03*
X1666240D02*
D03*
X1285240Y1796540D02*
D03*
X1666240D02*
D03*
D16*
X921000Y959920D02*
D03*
X1111000D02*
D03*
X1016000Y1188920D02*
D03*
D17*
X1407500Y4283500D02*
D03*
Y4733500D02*
D03*
X497500Y4283500D02*
D03*
Y4733500D02*
D03*
X2984500Y2066580D02*
D03*
Y1626580D02*
D03*
D18*
X2050600Y2666600D02*
D03*
Y2366600D02*
D03*
Y2766600D02*
D03*
X1200600Y2366600D02*
D03*
X2050600Y2716600D02*
D03*
X1200600Y2416600D02*
D03*
Y2466600D02*
D03*
Y2516600D02*
D03*
Y2566600D02*
D03*
Y2616600D02*
D03*
Y2666600D02*
D03*
Y2716600D02*
D03*
Y2766600D02*
D03*
Y2816600D02*
D03*
Y2866600D02*
D03*
Y2916600D02*
D03*
X2050600D02*
D03*
Y2866600D02*
D03*
Y2816600D02*
D03*
Y2616600D02*
D03*
Y2566600D02*
D03*
Y2516600D02*
D03*
Y2466600D02*
D03*
Y2416600D02*
D03*
D19*
X2123440Y4196380D02*
D03*
X1996440D02*
D03*
X1869440D02*
D03*
X2123440Y3789380D02*
D03*
X1996440D02*
D03*
X1869440D02*
D03*
D20*
X2087880Y2292020D02*
D03*
X2207260Y2761780D02*
D03*
X1143000Y2285200D02*
D03*
X701040Y3992880D02*
D03*
X2392680Y2774480D02*
D03*
Y2874480D02*
D03*
X2207260Y2861780D02*
D03*
X2087880Y2192020D02*
D03*
X1143000Y2185200D02*
D03*
X701040Y4092880D02*
D03*
X665480Y1827200D02*
D03*
Y1727200D02*
D03*
D21*
X1921840Y2077720D02*
D03*
X1358100Y3218180D02*
D03*
X1198880Y1640840D02*
D03*
X295440Y5118100D02*
D03*
X3201200Y4775200D02*
D03*
X2021840Y2077720D02*
D03*
X1258100Y3218180D02*
D03*
X467360Y4442460D02*
D03*
X395440Y5118100D02*
D03*
X1098880Y1640840D02*
D03*
X3301200Y4775200D02*
D03*
X367360Y4442460D02*
D03*
D22*
X2862120Y4714240D02*
D03*
X2992120Y4765040D02*
D03*
X2862120Y4815840D02*
D03*
D23*
X422920Y2054860D02*
D03*
X582920D02*
D03*
D24*
X1350600Y3066600D02*
D03*
X1900600Y2216600D02*
D03*
X1400600Y3066600D02*
D03*
X1850600Y2216600D02*
D03*
X1800600D02*
D03*
X1750600D02*
D03*
X1700600D02*
D03*
X1650600D02*
D03*
X1600600D02*
D03*
X1550600D02*
D03*
X1500600D02*
D03*
X1450600D02*
D03*
X1400600D02*
D03*
X1350600D02*
D03*
X1450600Y3066600D02*
D03*
X1500600D02*
D03*
X1550600D02*
D03*
X1600600D02*
D03*
X1650600D02*
D03*
X1700600D02*
D03*
X1750600D02*
D03*
X1800600D02*
D03*
X1850600D02*
D03*
X1900600D02*
D03*
D25*
X1837280Y4815840D02*
D03*
X1627280D02*
D03*
D26*
X469100Y4577080D02*
D03*
X369100D02*
D03*
X2048840Y3550920D02*
D03*
X2148840D02*
D03*
D27*
X1297940Y3367100D02*
D03*
X3360420Y1375080D02*
D03*
X3141980Y1377620D02*
D03*
X1297940Y3567100D02*
D03*
X3360420Y1175080D02*
D03*
X3141980Y1177620D02*
D03*
D28*
X2720340Y4717580D02*
D03*
X3256280Y3794760D02*
D03*
X2552700Y4727740D02*
D03*
X2369820Y4725200D02*
D03*
X2720340Y4817580D02*
D03*
X1742440Y3613480D02*
D03*
Y3713480D02*
D03*
X802640Y1844840D02*
D03*
Y1944840D02*
D03*
X909320Y1839760D02*
D03*
Y1939760D02*
D03*
X3200400Y4293400D02*
D03*
X3256280Y3894760D02*
D03*
X2082800Y3074200D02*
D03*
X3200400Y4393400D02*
D03*
X2082800Y3174200D02*
D03*
X2369820Y4825200D02*
D03*
X2552700Y4827740D02*
D03*
D29*
X3823760Y4996180D02*
D03*
X3638760D02*
D03*
D30*
X3370580Y4577080D02*
D03*
X3261360Y1954780D02*
D03*
Y2049780D02*
D03*
X3370580Y4482080D02*
D03*
D31*
X3526500Y3992245D02*
D03*
Y4262755D02*
D03*
X3331500Y3992245D02*
D03*
X3461500D02*
D03*
Y4262755D02*
D03*
X3396500D02*
D03*
X3331500D02*
D03*
X3396500Y3992245D02*
D03*
D32*
X3468880Y3850640D02*
D03*
X2661920Y1897380D02*
D03*
X2756920D02*
D03*
X3829560Y3840480D02*
D03*
X3373880Y3850640D02*
D03*
X3734560Y3840480D02*
D03*
D33*
X3579143Y3581400D02*
D03*
X3239144D02*
D03*
D34*
X3056300Y3921760D02*
D03*
X3058840Y4025900D02*
D03*
X3141300Y3921760D02*
D03*
X3143840Y4025900D02*
D03*
D35*
X2956560Y2319100D02*
D03*
Y2837100D02*
D03*
D36*
X2997200Y4436300D02*
D03*
Y4301300D02*
D03*
D37*
X2903220Y3090080D02*
D03*
Y3270080D02*
D03*
D38*
X2475540Y2618740D02*
D03*
X2345380Y1910080D02*
D03*
X2465380D02*
D03*
X2355540Y2618740D02*
D03*
D39*
X2530540Y2445520D02*
D03*
X2300540Y2065520D02*
D03*
X2530540D02*
D03*
X2300540Y2445520D02*
D03*
D40*
X3637280Y1284040D02*
D03*
Y1134040D02*
D03*
D41*
X3375660Y972900D02*
D03*
X3145660D02*
D03*
X3605660D02*
D03*
D42*
X3375660Y347900D02*
D03*
D43*
X2575560Y1229700D02*
D03*
Y1640500D02*
D03*
D44*
X1703620Y4681220D02*
D03*
X1613620D02*
D03*
X1177840Y1948180D02*
D03*
X1087840D02*
D03*
D45*
X76200Y1892775D02*
D03*
Y1968025D02*
D03*
D46*
X525780Y1747480D02*
D03*
Y1615480D02*
D03*
D47*
X369820Y1658450D02*
D03*
Y1160950D02*
D03*
D48*
X112320Y1747200D02*
D03*
Y1072200D02*
D03*
D49*
Y1524700D02*
D03*
D50*
X378320Y1279700D02*
D03*
Y1344700D02*
D03*
Y1409700D02*
D03*
Y1474700D02*
D03*
Y1539700D02*
D03*
D51*
X112320Y1254700D02*
D03*
D52*
X3518080Y4564380D02*
D03*
X3858080D02*
D03*
D53*
X2161540Y1201180D02*
D03*
Y1679180D02*
D03*
D54*
X2359660Y4495800D02*
D03*
X3263900Y2202180D02*
D03*
X3726180Y3200400D02*
D03*
X3817620Y962660D02*
D03*
X2969260Y970280D02*
D03*
D55*
X3098800Y4735200D02*
D03*
X1435100Y3278500D02*
D03*
Y3198500D02*
D03*
X1516380Y3288660D02*
D03*
Y3208660D02*
D03*
X3098800Y4815200D02*
D03*
D56*
X2684780Y2261440D02*
D03*
Y2366440D02*
D03*
D57*
X254000Y1981650D02*
D03*
Y1879150D02*
D03*
D58*
X2562860Y3139440D02*
D03*
Y3571240D02*
D03*
D59*
X2995930Y4163060D02*
D03*
X3166110D02*
D03*
D60*
X3555360Y1983740D02*
D03*
X3475360D02*
D03*
X3537580Y1798320D02*
D03*
X3457580D02*
D03*
D61*
X701040Y2365340D02*
D03*
Y2440340D02*
D03*
D62*
X3759200Y4174300D02*
D03*
Y4309300D02*
D03*
D63*
X1407500Y4604680D02*
Y4733500D01*
X1450600Y1993455D02*
Y2089894D01*
Y2216600D01*
X1305131Y1963420D02*
X1420565D01*
X1450600Y1993455D01*
X1289891Y1948180D02*
X1305131Y1963420D01*
X1177840Y1948180D02*
X1289891D01*
X3735070Y1791970D02*
X3741420Y1785620D01*
X3543930Y1791970D02*
X3735070D01*
X3537580Y1798320D02*
X3543930Y1791970D01*
X1216660Y4429760D02*
X1297940Y4511040D01*
X1821180D01*
X1402080Y4288920D02*
X1407500Y4283500D01*
X1402080Y4288920D02*
Y4424680D01*
X1404620Y4427220D01*
X1407500Y4604680D02*
X1409700Y4602480D01*
X1963817Y2666600D02*
X2050600D01*
X1716455Y2750820D02*
X1755140Y2712135D01*
Y2712108D02*
Y2712135D01*
X1936277Y2639060D02*
X1963817Y2666600D01*
X1828188Y2639060D02*
X1936277D01*
X1755140Y2712108D02*
X1828188Y2639060D01*
X1274640Y2967160D02*
X1275329D01*
X1296160Y2945640D02*
Y2946329D01*
Y2945640D02*
X1490980Y2750820D01*
X1716455D01*
X1275329Y2967160D02*
X1296160Y2946329D01*
X1028700Y3213100D02*
X1274640Y2967160D01*
X1396237Y4212156D02*
X1397581Y4213500D01*
Y4273581D01*
X1407500Y4283500D01*
X1396237Y4122420D02*
Y4212156D01*
X1028700Y3754883D02*
X1396237Y4122420D01*
X1028700Y3213100D02*
Y3754883D01*
X1821180Y4511040D02*
X2014220Y4704080D01*
X1592798Y3601577D02*
X1604701Y3613480D01*
X1742440D01*
X1592798Y3188292D02*
Y3601577D01*
X1550600Y3146094D02*
X1592798Y3188292D01*
X86194Y1978018D02*
X250369D01*
X254000Y1981650D01*
X76200Y1968025D02*
X86194Y1978018D01*
X1087120Y1846580D02*
Y1947460D01*
X1087840Y1948180D01*
X1628140Y2334260D02*
X1650600Y2311800D01*
Y2216600D02*
Y2311800D01*
X1521460Y2032000D02*
X1579354Y2089894D01*
X1600600Y2111140D01*
X1516640Y2032000D02*
X1521460D01*
X1117600Y2716600D02*
X1200600D01*
X900500D02*
X1117600D01*
X701040Y2440340D02*
Y2517140D01*
X900500Y2716600D01*
X3420359Y1978660D02*
X3470280D01*
X3375660Y1933777D02*
X3408456Y1966573D01*
Y1966757D02*
X3420359Y1978660D01*
X3375660Y1922780D02*
Y1933777D01*
X3408456Y1966573D02*
Y1966757D01*
X3470280Y1978660D02*
X3475360Y1983740D01*
X3555360D02*
X3598540Y2026920D01*
X3728720D01*
X3741420Y2039620D01*
X970280Y3018905D02*
X1072585Y2916600D01*
X1200600D01*
X3726180Y2923540D02*
X3743960Y2905760D01*
X554975Y3055620D02*
X868908D01*
X1057928Y2866600D01*
X1041837Y2666600D02*
X1200600D01*
X1003300Y2639060D02*
X1014297D01*
X1041837Y2666600D01*
X3393440Y1800860D02*
X3395980Y1798320D01*
X3457580D01*
X1600600Y2111140D02*
Y2216600D01*
X254000Y2120900D02*
X482600Y2349500D01*
X254000Y1981650D02*
Y2120900D01*
X482600Y2984500D02*
X875370D01*
X266460Y3200640D02*
X482600Y2984500D01*
X875370D02*
X1093270Y2766600D01*
X383413Y3227182D02*
Y3484592D01*
Y3227182D02*
X554975Y3055620D01*
X227615Y3238500D02*
X265475Y3200640D01*
X190500Y3238500D02*
X227615D01*
X265475Y3200640D02*
X266460D01*
X2639708Y4628528D02*
Y4784265D01*
X2719080Y4816320D02*
X2720340Y4817580D01*
X2639708Y4784265D02*
X2671763Y4816320D01*
X2719080D01*
X1203960Y4193540D02*
X1204757D01*
X1216660Y4205443D01*
X970280Y3959860D02*
X1203960Y4193540D01*
X1216660Y4205443D02*
Y4429760D01*
X970280Y3018905D02*
Y3959860D01*
X3758120Y4173220D02*
X3759200Y4174300D01*
X1302553Y2309647D02*
Y2328713D01*
Y2309647D02*
X1350600Y2261600D01*
Y2216600D02*
Y2261600D01*
X1459050Y2559050D02*
X1563370D01*
X1302553Y2328713D02*
Y2402553D01*
X1459050Y2559050D01*
X1200600Y2466600D02*
X1295227D01*
X190500Y3746500D02*
X200136Y3691539D01*
X276585Y3599073D02*
X276998Y3598629D01*
X383120Y3484906D01*
X200136Y3691539D02*
X276585Y3599073D01*
X190500Y3746500D02*
X190501Y3746499D01*
X2082800Y3074200D02*
X2096840Y3060160D01*
Y3018720D02*
Y3060160D01*
Y3018720D02*
X2146300Y2969260D01*
Y2829560D02*
Y2969260D01*
X2133340Y2816600D02*
X2146300Y2829560D01*
X2050600Y2816600D02*
X2133340D01*
X2590956Y4559456D02*
Y4579776D01*
X2639708Y4628528D01*
X2583180Y4551680D02*
X2590956Y4559456D01*
X2014220Y4704080D02*
Y4998720D01*
X1599440Y2970020D02*
Y3105840D01*
X1925985Y2798399D02*
X1933761Y2806175D01*
Y2827223D01*
X1956128Y2849590D01*
X1093270Y2766600D02*
X1200600D01*
X1789119Y2831175D02*
Y2879829D01*
Y2831175D02*
X1801624Y2818670D01*
Y2759019D02*
Y2818670D01*
Y2759019D02*
X1802933Y2757710D01*
X1563370Y2559050D02*
X1689100Y2684780D01*
X1057928Y2866600D02*
X1200600D01*
X571500Y1960880D02*
X582920Y1972300D01*
Y2054860D01*
X1295227Y2466600D02*
X1479550Y2650923D01*
Y2661920D01*
X1368223Y2686483D02*
Y2784417D01*
X1336040Y2816600D02*
X1368223Y2784417D01*
X2684780Y2359155D02*
Y2542289D01*
X2527769Y2699300D02*
X2684780Y2542289D01*
X2211620Y2699300D02*
X2527769D01*
X2128920Y2616600D02*
X2211620Y2699300D01*
X2050600Y2616600D02*
X2128920D01*
X2032000Y4980220D02*
Y5016500D01*
X2014220Y4998720D02*
X2032000Y5016500D01*
X1550600Y3066600D02*
Y3146094D01*
X1596320Y3108960D02*
X1600040Y3105240D01*
X1650600Y3066600D02*
Y3254581D01*
X1675361Y3279342D01*
Y3290339D01*
X1918858Y3172460D02*
X1963420D01*
X1850600Y3168860D02*
X1945640Y3263900D01*
X1900600Y3066600D02*
Y3154202D01*
X1945640Y3263900D02*
X1950720D01*
X1800600Y3183518D02*
X1884680Y3267598D01*
X1700600Y3221229D02*
X1700677Y3221305D01*
Y3222261D02*
X1776616Y3298199D01*
X1750600Y3066600D02*
Y3198175D01*
X1800600Y3066600D02*
Y3183518D01*
X1850600Y3066600D02*
Y3168860D01*
X1900600Y3154202D02*
X1918858Y3172460D01*
X1700600Y3066600D02*
Y3221229D01*
X1700677Y3221305D02*
Y3222261D01*
X1750600Y3198175D02*
X1822336Y3269911D01*
X1776616Y3298199D02*
Y3430167D01*
X1900600Y2991311D02*
Y3066600D01*
X1884680Y3267598D02*
Y3302455D01*
X1822336Y3269911D02*
Y3304768D01*
X1853900Y3336332D01*
X1926539Y3344314D02*
Y3346806D01*
X1884680Y3302455D02*
X1926539Y3344314D01*
X1853900Y3336332D02*
Y3394718D01*
X1856474Y3397292D01*
X1200600Y2816600D02*
X1336040D01*
X1600600Y3066600D02*
Y3103480D01*
X1600040Y3104040D02*
Y3105240D01*
X1599440Y2970020D02*
X1633220Y2936240D01*
X1600040Y3104040D02*
X1600600Y3103480D01*
X1366520Y2684780D02*
X1368223Y2686483D01*
X1500600Y3066600D02*
Y3159594D01*
X1510003Y3170154D02*
X1516380Y3176531D01*
X1500600Y3159594D02*
X1510003Y3168996D01*
Y3170154D01*
X1450600Y3066600D02*
Y3177920D01*
X1445260Y3183260D02*
X1450600Y3177920D01*
X1516380Y3176531D02*
Y3188340D01*
X1890088Y2876945D02*
X1896988D01*
X1936643Y2916600D02*
X2050600D01*
X1896988Y2876945D02*
X1936643Y2916600D01*
X1789119Y2879829D02*
X1900600Y2991311D01*
X1968031Y2866600D02*
X2050600D01*
X1956128Y2854697D02*
X1968031Y2866600D01*
X1956128Y2849590D02*
Y2854697D01*
D64*
X3833010Y3843930D02*
Y3859539D01*
X3842220Y3868748D02*
Y3975100D01*
X3833010Y3859539D02*
X3842220Y3868748D01*
X3829560Y3840480D02*
X3833010Y3843930D01*
X363080Y1274620D02*
X543100D01*
X2270460Y3789380D02*
X2270760Y3789680D01*
X2123440Y4221310D02*
X2141390Y4239260D01*
X2123440Y4196380D02*
Y4221310D01*
X1909413Y2137551D02*
X1910050Y2138188D01*
X1909413Y2105988D02*
X1915890Y2099511D01*
Y2083670D02*
X1921840Y2077720D01*
X1909413Y2105988D02*
Y2137551D01*
X1915890Y2083670D02*
Y2099511D01*
X2081930Y2297970D02*
X2087880Y2292020D01*
X2212080Y2766600D02*
X2214080Y2768600D01*
X2466340D02*
X2491740Y2794000D01*
X1910050Y2269701D02*
X1932369Y2292020D01*
X2087880D01*
X1327150Y3090050D02*
X1346550D01*
X1350600Y3066600D02*
Y3086000D01*
X1277620Y3091180D02*
X1326020D01*
X1327150Y3090050D01*
X1346550D02*
X1350600Y3086000D01*
Y3210680D01*
X2124803Y2765890D02*
X2128913Y2761780D01*
X2207260D01*
X2051310Y2765890D02*
X2124803D01*
X2050600Y2766600D02*
X2051310Y2765890D01*
X2214080Y2768600D02*
X2466340D01*
X1921840Y2012620D02*
X1965960Y1968500D01*
X1910050Y2138188D02*
Y2269701D01*
X1921840Y2012620D02*
Y2077720D01*
X525780Y1828591D02*
X535731Y1838541D01*
X525780Y1747480D02*
Y1828591D01*
X2763520Y3086100D02*
X2767500Y3090080D01*
X2903220D01*
X3535693Y3624850D02*
X3579143Y3581400D01*
X3535693Y3624850D02*
Y3780941D01*
X3522980Y3793654D02*
X3535693Y3780941D01*
X3522980Y3793654D02*
Y3799840D01*
X3517180D02*
X3522980D01*
X3468880Y3848140D02*
X3517180Y3799840D01*
X3468880Y3848140D02*
Y3850640D01*
Y3853140D02*
X3526500Y3910760D01*
Y3992245D01*
X1218400Y2185200D02*
X1221740Y2181860D01*
X1143000Y2185200D02*
X1218400D01*
X389490Y5112150D02*
X395440Y5118100D01*
X389490Y5072207D02*
Y5112150D01*
X340360Y5023077D02*
X389490Y5072207D01*
X340360Y4937760D02*
Y5023077D01*
X543100Y1274620D02*
X546100Y1277620D01*
X3261360Y1897380D02*
X3261558Y1897578D01*
Y1954582D01*
X3261360Y1954780D02*
X3261558Y1954582D01*
X1851660Y2286000D02*
Y2415540D01*
X1849120Y2418080D02*
X1851660Y2415540D01*
X512040Y1554546D02*
X524830Y1567336D01*
Y1614530D02*
X525780Y1615480D01*
X524830Y1567336D02*
Y1614530D01*
X512040Y1548360D02*
Y1554546D01*
X497194Y1539700D02*
X505854Y1548360D01*
X378320Y1539700D02*
X492760D01*
X497194D01*
X505854Y1548360D02*
X512040D01*
X3282594Y3670300D02*
X3373880D01*
X3245456Y3543320D02*
Y3633163D01*
X3282594Y3670300D01*
X3239144Y3581400D02*
Y3588750D01*
X3195694Y3632200D02*
X3239144Y3588750D01*
X2941320Y3870960D02*
X2954020Y3858260D01*
X2888220Y3270080D02*
X2903220D01*
X2910520Y3277380D01*
X367360Y4442460D02*
Y4575340D01*
X369100Y4577080D02*
Y4650100D01*
X452500Y4733500D01*
X487500D01*
X3734560Y3840480D02*
Y3842980D01*
X3639537Y3938003D02*
Y4061743D01*
Y3938003D02*
X3734560Y3842980D01*
X3554314Y4146966D02*
X3581648Y4174300D01*
X3554314Y4146966D02*
X3639537Y4061743D01*
X3509927Y4102579D02*
X3554314Y4146966D01*
X3460443Y4053095D02*
X3509927Y4102579D01*
X3461500Y3992245D02*
X3465540Y3996285D01*
X3460443Y4042410D02*
Y4053095D01*
X3256280Y3894760D02*
X3262230Y3900710D01*
X3327690Y3961130D02*
Y3992884D01*
X3267270Y3900710D02*
X3327690Y3961130D01*
X3262230Y3900710D02*
X3267270D01*
D65*
X1424940Y1485900D02*
X1539240Y1600200D01*
X1016000Y1485900D02*
X1424940D01*
X1016000D02*
Y1557960D01*
X3375660Y347900D02*
Y972900D01*
X1016000Y1557960D02*
X1098880Y1640840D01*
X1016000Y1188920D02*
Y1485900D01*
X1837280Y4687160D02*
Y4815840D01*
X1826260Y4676140D02*
X1831770Y4681650D01*
X1837280Y4687160D01*
X2955290Y2551430D02*
X2956560Y2550160D01*
X2954020Y2552700D02*
X2955290Y2551430D01*
X2956560Y2319100D02*
Y2550160D01*
X2723480Y1377620D02*
X3141980D01*
X2575560Y1229700D02*
X2723480Y1377620D01*
X3725386Y1515586D02*
X3741420Y1531620D01*
X3725386Y1372146D02*
Y1515586D01*
X3644180Y1290940D02*
X3725386Y1372146D01*
X3644180Y1285940D02*
Y1290940D01*
X3642280Y1284040D02*
X3644180Y1285940D01*
X3637280Y1284040D02*
X3642280D01*
X3541240Y1375080D02*
X3632280Y1284040D01*
X3637280D01*
X3360420Y1375080D02*
X3541240D01*
X3141980Y1377620D02*
X3357880D01*
X3360420Y1375080D01*
X532500Y4283500D02*
X700000Y4116000D01*
X357544Y4178544D02*
X462500Y4283500D01*
X357544Y4107056D02*
Y4178544D01*
X1539240Y1600200D02*
Y1796540D01*
X2909840Y1666240D02*
X2949500Y1626580D01*
X2575560Y1640500D02*
X2601300Y1666240D01*
X2909840D01*
X2949500Y1626580D02*
X2984500D01*
X3373880Y3670300D02*
Y3850640D01*
X3261360Y2087880D02*
Y2199640D01*
X3810000Y4523276D02*
X3838404Y4551680D01*
X3373880Y3850640D02*
Y3874982D01*
X2753530Y3270080D02*
X2888220D01*
X3650297Y784860D02*
X3870960D01*
X3605660Y829497D02*
X3650297Y784860D01*
X3605660Y829497D02*
Y972900D01*
X2976338Y3632200D02*
X3195694D01*
X2954020Y3654518D02*
X2976338Y3632200D01*
X2954020Y3654518D02*
Y3858260D01*
X2707720Y2837100D02*
X2956560D01*
X2562860Y2981960D02*
Y3139440D01*
Y2981960D02*
X2707720Y2837100D01*
X2562860Y3571240D02*
X2583180Y3550920D01*
Y3440430D02*
X2753530Y3270080D01*
X2583180Y3440430D02*
Y3550920D01*
X3223260Y3277380D02*
Y3522200D01*
X2910520Y3277380D02*
X3223260D01*
Y3057380D02*
X3237000D01*
X3263900Y3030480D01*
Y2202180D02*
Y3030480D01*
X3261360Y2199640D02*
X3263900Y2202180D01*
X2756920Y1821860D02*
Y1897380D01*
X2575560Y1640500D02*
X2756920Y1821860D01*
X2536880Y1679180D02*
X2575560Y1640500D01*
X2161540Y1679180D02*
X2536880D01*
X3612560Y979800D02*
Y1049117D01*
X3630380Y1066937D02*
Y1132140D01*
X3632280Y1134040D02*
X3637280D01*
X3605660Y972900D02*
X3612560Y979800D01*
Y1049117D02*
X3630380Y1066937D01*
Y1132140D02*
X3632280Y1134040D01*
X3615900Y962660D02*
X3817620D01*
X3605660Y972900D02*
X3615900Y962660D01*
X2969260Y970280D02*
X3143040D01*
X3145660Y972900D01*
Y1173940D01*
X3141980Y1177620D02*
X3145660Y1173940D01*
X3141980Y1177620D02*
X3144520Y1175080D01*
X3360420D01*
X3796341Y4786224D02*
X3838404Y4711774D01*
Y4551680D02*
Y4711774D01*
X3859974Y4828540D02*
X3863340D01*
X3832035Y4800600D02*
X3859974Y4828540D01*
D66*
X3480980Y4577080D02*
X3536921Y4633021D01*
X97080Y1724620D02*
X117400D01*
X97080Y1083080D02*
Y1724620D01*
Y1805299D01*
X351234Y1159216D02*
Y1252120D01*
X97080Y1083080D02*
X136680Y1122680D01*
X97080Y1067120D02*
Y1083080D01*
X1770380Y3901440D02*
X1857840D01*
X1869440Y3789380D02*
Y3889840D01*
X1857840Y3901440D02*
X1869440Y3889840D01*
X1778000Y4231640D02*
X1845140D01*
X2123440Y3789380D02*
X2270460D01*
X2141390Y4239260D02*
X2250440D01*
X1143000Y2285200D02*
Y2306320D01*
X1186180Y2349500D01*
X1112367Y2285200D02*
X1143000D01*
X1077607Y2250440D02*
X1112367Y2285200D01*
X1038860Y2250440D02*
X1077607D01*
X414020Y2045960D02*
X422920Y2054860D01*
X414020Y1968500D02*
Y2045960D01*
X2081930Y2297970D02*
Y2339539D01*
X2069869Y2351600D02*
X2081930Y2339539D01*
X292101Y5118100D02*
X295440D01*
X190501Y5016500D02*
X292101Y5118100D01*
X190500Y5016500D02*
X190501D01*
X456956Y4577080D02*
X744220D01*
X541020Y3992880D02*
X701040D01*
X1310440Y3367100D02*
X1358100Y3319440D01*
Y3218180D02*
Y3319440D01*
X1297940Y3367100D02*
X1310440D01*
X2478884Y2280764D02*
X2486660Y2288540D01*
X2478884Y2258864D02*
Y2280764D01*
X2300540Y2080520D02*
X2478884Y2258864D01*
X2300540Y2065520D02*
Y2080520D01*
X2486660Y2288540D02*
X2530540Y2332420D01*
Y2445520D01*
X2661920Y1897380D02*
Y1960880D01*
X3823760Y4996180D02*
Y5101800D01*
X3817620Y5107940D02*
X3823760Y5101800D01*
X3536921Y4633021D02*
Y4645721D01*
X3048000Y5016500D02*
X3201200Y4863300D01*
X3370580Y4577080D02*
X3480980D01*
X3201200Y4775200D02*
Y4863300D01*
X2987600Y4426700D02*
X2997200Y4436300D01*
X2900160Y4426700D02*
X2987600D01*
X2898140Y4424680D02*
X2900160Y4426700D01*
X2381650Y2865190D02*
X2385060Y2868600D01*
X2296160Y2865190D02*
X2381650D01*
X2475540Y2611240D02*
Y2618740D01*
X2210670Y2865190D02*
X2296160D01*
X2475540Y2611240D02*
X2530540Y2556240D01*
Y2445520D02*
Y2556240D01*
X2207260Y2861780D02*
X2210670Y2865190D01*
X2345380Y1910080D02*
Y2020680D01*
X2021840Y2077720D02*
X2288340D01*
X2300540Y2065520D01*
X2087880Y2143760D02*
Y2192020D01*
X2021840Y2077720D02*
X2087880Y2143760D01*
X2300540Y2065520D02*
X2345380Y2020680D01*
X1698664Y4680908D02*
X1698976Y4681220D01*
X1698664Y4609504D02*
Y4680908D01*
X1696720Y4607560D02*
X1698664Y4609504D01*
X1191260Y3218180D02*
X1258100D01*
X1122680Y3286760D02*
X1191260Y3218180D01*
X537680Y4323680D02*
Y4372140D01*
X467360Y4442460D02*
X537680Y4372140D01*
X515000Y4301000D02*
X537680Y4323680D01*
X462500Y4283500D02*
X497500D01*
X700000Y4093920D02*
Y4116000D01*
X497500Y4283500D02*
X532500D01*
X1122680Y3286760D02*
Y3527851D01*
X700000Y4093920D02*
X701040Y4092880D01*
X619760Y3121660D02*
Y3146721D01*
X513080Y3253401D02*
Y3258820D01*
X355600Y4105112D02*
X357544Y4107056D01*
X513080Y3253401D02*
X619760Y3146721D01*
X80247Y1888728D02*
X150892D01*
X560744Y1862416D02*
X630264D01*
X558800Y1861611D02*
Y1864360D01*
X560744Y1862416D01*
X630264D02*
X665480Y1827200D01*
X535731Y1838541D02*
X558800Y1861611D01*
X150892Y1888728D02*
X154940Y1884680D01*
X89664Y1812716D02*
X97080Y1805299D01*
X80247Y1888728D02*
X89664Y1879311D01*
Y1812716D02*
Y1879311D01*
X321390Y1122680D02*
X354580Y1155870D01*
X351234Y1159216D02*
X354580Y1155870D01*
X136680Y1122680D02*
X321390D01*
X1122680Y3527851D02*
X1161929Y3567100D01*
X1297940D01*
X3462020Y4720623D02*
X3536921Y4645721D01*
X3462020Y4720623D02*
Y4787900D01*
X151920Y1688208D02*
Y1690100D01*
Y1688208D02*
X181678Y1658450D01*
X117400Y1724620D02*
X151920Y1690100D01*
X181678Y1658450D02*
X369820D01*
X665480Y1727200D02*
X713740D01*
X525780Y1615480D02*
Y1639581D01*
X555595Y1669396D02*
X607676D01*
X525780Y1639581D02*
X555595Y1669396D01*
X607676D02*
X609620Y1671340D01*
X607676Y1669396D02*
X665480Y1727200D01*
X3397540Y3898642D02*
Y3931920D01*
X3373880Y3874982D02*
X3397540Y3898642D01*
X3726180Y2923540D02*
Y3200400D01*
X713740Y1727200D02*
X734060Y1747520D01*
X2369820Y4648200D02*
Y4725200D01*
X2956560Y3939540D02*
X2958504Y3941484D01*
X3051787Y4011100D02*
X3055094Y4014406D01*
X2958504Y3941484D02*
Y3960796D01*
X3008807Y4011100D01*
X3051787D01*
X3638760Y4996180D02*
Y5008680D01*
Y4983680D02*
Y4996180D01*
X3584867Y4969080D02*
X3624160D01*
X3573757D02*
X3584867D01*
X3624160D02*
X3638760Y4983680D01*
X3505200Y4935220D02*
X3551007D01*
X3584867Y4969080D01*
X3638760Y5023280D02*
Y5101800D01*
X3532544Y5072533D02*
X3581797Y5023280D01*
X3530600Y5080000D02*
X3532544Y5078056D01*
X3581797Y5023280D02*
X3624160D01*
X3532544Y5072533D02*
Y5078056D01*
X3624160Y5023280D02*
X3638760Y5008680D01*
Y5101800D02*
X3647440Y5110480D01*
X3604260Y4173220D02*
X3758120D01*
X3635900Y4800600D02*
Y4956380D01*
D67*
X970641Y933620D02*
X985520Y918741D01*
X947300Y933620D02*
X970641D01*
X921000Y959920D02*
X947300Y933620D01*
X985520Y874918D02*
Y918741D01*
X914400Y803798D02*
X985520Y874918D01*
X1389380Y272801D02*
Y410441D01*
X1044631Y244531D02*
X1044631D01*
X1076960Y276860D02*
X1328781D01*
X1058022Y231140D02*
X1347719D01*
X1044631Y244531D02*
X1058022Y231140D01*
X1343660Y291739D02*
Y442321D01*
X960120Y393700D02*
X1076960Y276860D01*
X1328781D02*
X1343660Y291739D01*
X1347719Y231140D02*
X1389380Y272801D01*
X914399Y374762D02*
X1044631Y244531D01*
X960120Y393700D02*
Y784860D01*
X914400Y374762D02*
Y803798D01*
X1031240Y855980D02*
Y929482D01*
X1046119Y944361D01*
X1095441D01*
X1111000Y959920D01*
X1234440Y584200D02*
X1328781D01*
X1107440Y457200D02*
X1234440Y584200D01*
X1404259D02*
X1488440D01*
X1615440Y457200D01*
X1811439Y1269601D02*
Y1381341D01*
X1785620Y1407160D02*
X1811439Y1381341D01*
X1533620Y1407160D02*
X1785620D01*
X1811439Y1269601D02*
X1841500Y1239540D01*
X1539240Y1256540D02*
Y1304040D01*
X1498600Y1336219D02*
Y1372140D01*
Y1336219D02*
X1513479Y1321340D01*
X1498600Y1372140D02*
X1533620Y1407160D01*
X1521940Y1321340D02*
X1539240Y1304040D01*
X1513479Y1321340D02*
X1521940D01*
Y1191740D02*
X1539240Y1209040D01*
Y1256540D01*
X1498600Y1176861D02*
X1513479Y1191740D01*
X1521940D01*
X1498600Y952120D02*
Y1176861D01*
X1389380Y842900D02*
X1498600Y952120D01*
X1389380Y599079D02*
X1404259Y584200D01*
X1389380Y599079D02*
Y842900D01*
Y410441D02*
X1404259Y425320D01*
X1620520D01*
X1144400Y457200D02*
X1328781D01*
X1107440D02*
X1144400D01*
X1328781D02*
X1343660Y442321D01*
X1796621Y1452880D02*
X1811500Y1467759D01*
Y1529540D02*
X1841500Y1559540D01*
X1811500Y1467759D02*
Y1529540D01*
X1514682Y1452880D02*
X1796621D01*
X1452880Y1336219D02*
Y1391078D01*
X1514682Y1452880D01*
X1438001Y1321340D02*
X1452880Y1336219D01*
X1429540Y1321340D02*
X1438001D01*
X1412240Y1209040D02*
X1429540Y1191740D01*
X1438001D01*
X1452880Y971058D02*
Y1176861D01*
X1438001Y1191740D02*
X1452880Y1176861D01*
X1412240Y1256540D02*
Y1304040D01*
X1429540Y1321340D01*
X1412240Y1209040D02*
Y1256540D01*
X1343660Y861838D02*
X1452880Y971058D01*
X1343660Y599079D02*
Y861838D01*
X960120Y784860D02*
X1031240Y855980D01*
X1328781Y584200D02*
X1343660Y599079D01*
X1435100Y3278500D02*
Y4063894D01*
X1897486Y4526280D01*
X2156460D01*
X1741170Y3714750D02*
Y3788410D01*
Y3714750D02*
X1742440Y3713480D01*
X1739900Y3789680D02*
X1741170Y3788410D01*
X1845140Y4231640D02*
X1869440Y4207340D01*
Y4196380D02*
Y4207340D01*
X1993900Y4198920D02*
X1996440Y4196380D01*
X1993900Y4198920D02*
Y4384401D01*
X1979021Y4399280D02*
X1993900Y4384401D01*
X1841958Y4399280D02*
X1979021D01*
X1802359Y4359681D02*
X1841958Y4399280D01*
X1802359Y4359681D02*
X1802544Y4359496D01*
X1675272Y4232225D02*
X1802544Y4359496D01*
X1675272Y4100972D02*
Y4232225D01*
X1549400Y3975100D02*
X1675272Y4100972D01*
X1996440Y3608320D02*
Y3789380D01*
Y3608320D02*
X2048840Y3555920D01*
Y3550920D02*
Y3555920D01*
X2048074Y3368874D02*
X2063152Y3383952D01*
X2148840Y3469640D02*
Y3550920D01*
X2063152Y3383952D02*
Y3393478D01*
Y3383856D02*
Y3383952D01*
X2148840Y3469640D01*
X2733680Y4714240D02*
X2797900D01*
X2720340Y4727580D02*
X2733680Y4714240D01*
X2720340Y4727580D02*
Y4729724D01*
X1350600Y3210680D02*
X1358100Y3218180D01*
X2797900Y4714240D02*
X2862120D01*
X2735580Y4651920D02*
X2797900Y4714240D01*
X2735580Y4625340D02*
Y4651920D01*
X513080Y4020820D02*
X541020Y3992880D01*
X3162322Y3794760D02*
X3256280D01*
X3064950Y3860179D02*
X3079829Y3845300D01*
X3058400Y3911600D02*
X3064950Y3905050D01*
Y3860179D02*
Y3905050D01*
X3111782Y3845300D02*
X3162322Y3794760D01*
X3079829Y3845300D02*
X3111782D01*
X1919040Y2716600D02*
X2050600D01*
X1915160Y2712720D02*
X1919040Y2716600D01*
X1419860Y2943860D02*
Y2953483D01*
X1400600Y2972743D02*
X1419860Y2953483D01*
X1400600Y2972743D02*
Y3066600D01*
X1850600Y2284940D02*
X1851660Y2286000D01*
X1850600Y2216600D02*
Y2284940D01*
X1088647Y2416600D02*
X1200600D01*
X1036553Y2364507D02*
X1088647Y2416600D01*
X467400Y1757680D02*
X475260Y1749820D01*
X492760Y1648500D02*
X525780Y1615480D01*
X445362Y1779719D02*
X467400Y1757680D01*
X475260Y1666000D02*
X492760Y1648500D01*
X475260Y1666000D02*
Y1749820D01*
X303081Y1779719D02*
X445362D01*
X387960Y1465060D02*
X492760D01*
X387960Y1419340D02*
X492760D01*
X611620D01*
X492760Y1465060D02*
X592682D01*
X378320Y1409700D02*
X387960Y1419340D01*
X592682Y1465060D02*
X832640Y1705018D01*
X611620Y1419340D02*
X878840Y1686560D01*
X378320Y1474700D02*
X387960Y1465060D01*
X832640Y1705018D02*
Y1819840D01*
X802640Y1844840D02*
X807640D01*
X832640Y1819840D01*
X1629490Y2028270D02*
X1707072D01*
X1513360Y1912140D02*
X1629490Y2028270D01*
X1353340Y1912140D02*
X1513360D01*
X1603101Y1907179D02*
Y1928221D01*
X1657430Y1982550D02*
X1726010D01*
X1603101Y1907179D02*
X1666240Y1844040D01*
X1603101Y1928221D02*
X1657430Y1982550D01*
X1752740Y2073938D02*
Y2214460D01*
X1798460Y2055000D02*
Y2214460D01*
X1707072Y2028270D02*
X1752740Y2073938D01*
X1726010Y1982550D02*
X1798460Y2055000D01*
X878840Y1686560D02*
Y1814280D01*
X701040Y2228417D02*
Y2365340D01*
X683260Y2210637D02*
X701040Y2228417D01*
X683260Y2199640D02*
Y2210637D01*
X1700600Y2216600D02*
Y2488000D01*
X1666240Y1796540D02*
Y1844040D01*
X1798460Y2214460D02*
X1800600Y2216600D01*
X1750600D02*
X1752740Y2214460D01*
X1285240Y1844040D02*
X1353340Y1912140D01*
X1285240Y1796540D02*
Y1844040D01*
X1036320Y2081456D02*
Y2090420D01*
X992309Y2037444D02*
X1036320Y2081456D01*
X992309Y1913867D02*
Y2037444D01*
X955101Y1876660D02*
X992309Y1913867D01*
X951220Y1876660D02*
X955101D01*
X914320Y1839760D02*
X951220Y1876660D01*
X909320Y1839760D02*
X914320D01*
X878840Y1814280D02*
X904320Y1839760D01*
X909320D01*
X833120Y1970320D02*
Y2459878D01*
X802640Y1944840D02*
X807640D01*
X833120Y1970320D01*
Y2459878D02*
X937702Y2564460D01*
X1198460D01*
X1200600Y2566600D01*
X878840Y1965240D02*
X904320Y1939760D01*
X878840Y1965240D02*
Y2440940D01*
X904320Y1939760D02*
X909320D01*
X878840Y2440940D02*
X956640Y2518740D01*
X1198460D02*
X1200600Y2516600D01*
X956640Y2518740D02*
X1198460D01*
X2791460Y4457700D02*
X2867660Y4533900D01*
X3116879D01*
X2791460Y4348480D02*
Y4457700D01*
X3116879Y4533900D02*
X3200400Y4450379D01*
X3761369Y4054330D02*
X3895892D01*
X3742220Y4035181D02*
X3761369Y4054330D01*
X3895892D02*
X3899529Y4050692D01*
X3742220Y3975100D02*
Y4035181D01*
X850900Y4861560D02*
X886460Y4897120D01*
X207695Y4762500D02*
X306755Y4861560D01*
X850900D01*
X3522460Y4266795D02*
Y4328786D01*
Y4266795D02*
X3526500Y4262755D01*
X3467746Y4383500D02*
X3522460Y4328786D01*
X2364740Y4643120D02*
X2369820Y4648200D01*
X2364740Y4500880D02*
Y4643120D01*
X2359660Y4495800D02*
X2364740Y4500880D01*
X254000Y1828800D02*
Y1879150D01*
Y1828800D02*
X303081Y1779719D01*
X3301600Y4775600D02*
Y5016100D01*
X3302000Y5016500D01*
X3029310Y4735200D02*
X3098800D01*
X2999470Y4765040D02*
X3029310Y4735200D01*
X2992120Y4765040D02*
X2999470D01*
X3098800Y4735200D02*
X3147700Y4686300D01*
X3241040D01*
X3264300Y4709560D02*
Y4709560D01*
X3289029Y4734289D02*
Y4763029D01*
X3301600Y4775600D01*
X3241040Y4686300D02*
X3264300Y4709560D01*
Y4709560D02*
X3289029Y4734289D01*
X2552700Y4668520D02*
Y4727740D01*
X2465380Y1910080D02*
X2483458Y1928158D01*
Y2033438D01*
X2582840Y2132820D01*
X1552276Y2206340D02*
Y2369484D01*
X2597840Y2132820D02*
X2674079Y2209059D01*
Y2250739D02*
X2684780Y2261440D01*
X2582840Y2132820D02*
X2597840D01*
X2674079Y2209059D02*
Y2250739D01*
X2355540Y2611240D02*
Y2618740D01*
X2330740Y2586440D02*
X2355540Y2611240D01*
X2323360Y2586440D02*
X2330740D01*
X2300540Y2563620D02*
X2323360Y2586440D01*
X2300540Y2445520D02*
Y2563620D01*
Y2445520D02*
Y2460520D01*
X2194460Y2566600D02*
X2300540Y2460520D01*
X2050600Y2566600D02*
X2194460D01*
X190500Y4762500D02*
X207695D01*
X2454750Y4222590D02*
Y4493110D01*
X1684742Y4000500D02*
X2224498D01*
X2236470Y4004310D02*
X2454750Y4222590D01*
X2224498Y4000500D02*
X2228308Y4004310D01*
X2236470D01*
X3283536Y4080510D02*
X3341370D01*
X3457460Y4196600D01*
Y4258715D01*
X3236045Y4262755D02*
X3331500D01*
X3205400Y4293400D02*
X3236045Y4262755D01*
X3196450Y4297350D02*
X3200400Y4293400D01*
X3001150Y4297350D02*
X3196450D01*
X2997200Y4301300D02*
X3001150Y4297350D01*
X3158490Y4140200D02*
X3200400Y4182110D01*
Y4293400D01*
X3457460Y4258715D02*
X3461500Y4262755D01*
X3216226Y4013200D02*
X3283536Y4080510D01*
X3141300Y4013200D02*
X3216226D01*
X3141300Y3911600D02*
Y4013200D01*
X3396500Y4262755D02*
Y4350935D01*
X3370580Y4376855D02*
X3396500Y4350935D01*
X3370580Y4376855D02*
Y4482080D01*
X2156460Y4526280D02*
X2214400Y4584220D01*
Y4772180D01*
X3200400Y4450379D02*
Y4470937D01*
Y4393400D02*
Y4450379D01*
X2791460Y4348480D02*
X2988310Y4151630D01*
X2214400Y4772180D02*
X2286000Y4843780D01*
Y4980759D01*
X1880973Y3498747D02*
X1994572Y3385148D01*
Y3355449D02*
Y3385148D01*
Y3355449D02*
X2082800Y3267221D01*
X1731761Y3498747D02*
X1880973D01*
X2731264Y4815840D02*
X2862120D01*
X2794000Y5016500D02*
X2819272Y4991228D01*
X2862764D01*
X3038792Y4815200D01*
X3098800D01*
X3230880Y4501417D02*
Y4511040D01*
X3200400Y4470937D02*
X3230880Y4501417D01*
X2988310Y4140200D02*
Y4151630D01*
X1441061Y2355020D02*
X1498936Y2297146D01*
X1368593Y2359660D02*
X1373233Y2355020D01*
X1441061D01*
X1447021Y2416797D02*
X1504963D01*
X1528134Y2393626D01*
X1528134D02*
X1552276Y2369484D01*
X1528134Y2393626D02*
X1528134D01*
X1440218Y2423600D02*
X1447021Y2416797D01*
X1305427Y2594161D02*
X1315050D01*
X1282989Y2616600D02*
X1305427Y2594161D01*
X1200600Y2616600D02*
X1282989D01*
X1135380Y2072640D02*
X1145003D01*
X1167863Y2049780D02*
X1281800D01*
X1145003Y2072640D02*
X1167863Y2049780D01*
X1384300Y2101030D02*
X1400600Y2117330D01*
X1384300Y2049780D02*
Y2101030D01*
X2368164Y4825200D02*
Y4905286D01*
X2286000Y4987450D02*
X2368164Y4905286D01*
X1713800Y3480786D02*
X1731761Y3498747D01*
X1713800Y3476023D02*
Y3480786D01*
X1681480Y3443703D02*
X1713800Y3476023D01*
X1681480Y3434080D02*
Y3443703D01*
X2082800Y3174200D02*
Y3267221D01*
X1400600Y2117330D02*
Y2216600D01*
X1559560Y3673150D02*
Y3875318D01*
X1684742Y4000500D01*
X1510537Y3281320D02*
Y3624127D01*
X1559560Y3673150D01*
X2540000Y5016500D02*
X2546350Y5010150D01*
Y4834090D02*
Y5010150D01*
Y4834090D02*
X2552700Y4827740D01*
X2286000Y4987450D02*
Y5016500D01*
X2454750Y4493110D02*
Y4931250D01*
X2540000Y5016500D01*
X1498936Y2203800D02*
Y2297146D01*
D68*
X1198880Y1640840D02*
X1375042D01*
X1412240Y1678038D01*
Y1796540D01*
D69*
X3397540Y3931920D02*
Y3991205D01*
X3396500Y3992245D02*
X3397540Y3991205D01*
D70*
X3240060Y2066580D02*
X3261360Y2087880D01*
D71*
X2984500Y2066580D02*
X3240060D01*
X2094230Y927830D02*
Y1180680D01*
X2114730Y1201180D02*
X2161540D01*
X2082800Y916400D02*
X2094230Y927830D01*
Y1180680D02*
X2114730Y1201180D01*
X2082800Y668020D02*
X2118360Y632460D01*
X2082800Y668020D02*
Y916400D01*
X2118360Y401320D02*
Y632460D01*
Y401320D02*
X2120900Y398780D01*
D72*
X3810000Y4333993D02*
Y4523276D01*
D73*
X1618264Y4681576D02*
Y4806824D01*
X1627280Y4815840D01*
D74*
X2123440Y457200D02*
D03*
X1615440D02*
D03*
X1107440D02*
D03*
D75*
X599440D02*
D03*
D76*
X190500Y5016500D02*
D03*
X3048000D02*
D03*
X190500Y2222500D02*
D03*
X3302000Y5016500D02*
D03*
X190500Y2476500D02*
D03*
Y2730500D02*
D03*
Y2984500D02*
D03*
Y3238500D02*
D03*
Y3492500D02*
D03*
Y3746500D02*
D03*
Y4000500D02*
D03*
Y4254500D02*
D03*
Y4508500D02*
D03*
Y4762500D02*
D03*
X2794000Y5016500D02*
D03*
X2540000D02*
D03*
X2286000D02*
D03*
X2032000D02*
D03*
X1778000D02*
D03*
X1524000D02*
D03*
X1270000D02*
D03*
X1016000D02*
D03*
X762000D02*
D03*
X508000D02*
D03*
D77*
X513080Y4020820D02*
D03*
D78*
X3743960Y2651760D02*
D03*
X3741420Y1531620D02*
D03*
X3743960Y2397760D02*
D03*
X482600Y2603500D02*
D03*
Y2857500D02*
D03*
X3741420Y1785620D02*
D03*
D79*
X513080Y3258820D02*
D03*
Y3512820D02*
D03*
Y3766820D02*
D03*
D80*
X3743960Y2905760D02*
D03*
X482600Y2349500D02*
D03*
X3741420Y2039620D02*
D03*
D81*
X1409700Y4602480D02*
D03*
X1404620Y4427220D02*
D03*
X1770380Y3901440D02*
D03*
X1739900Y3789680D02*
D03*
X1778000Y4231640D02*
D03*
X2270760Y3789680D02*
D03*
X2250440Y4239260D02*
D03*
X744220Y4577080D02*
D03*
X1831770Y4681650D02*
D03*
X1277620Y3091180D02*
D03*
X1038860Y2250440D02*
D03*
X414020Y1968500D02*
D03*
X2491740Y2794000D02*
D03*
X2735580Y4625340D02*
D03*
X1375042Y1640840D02*
D03*
X1965960Y1968500D02*
D03*
X2955290Y2551430D02*
D03*
X2767500Y3090080D02*
D03*
X2486660Y2288540D02*
D03*
X3261360Y1897380D02*
D03*
X2661920Y1960880D02*
D03*
X3817620Y5107940D02*
D03*
X3522980Y3799840D02*
D03*
X3162322Y3794760D02*
D03*
X2880360Y4417060D02*
D03*
X2296160Y2865190D02*
D03*
X1915160Y2712720D02*
D03*
X3746500Y571500D02*
D03*
X3865880D02*
D03*
X3421380D02*
D03*
X3609340D02*
D03*
X3867157Y435400D02*
D03*
X3747777D02*
D03*
X3865880Y317500D02*
D03*
X3610617Y435400D02*
D03*
X3746500Y317500D02*
D03*
X3865880Y200660D02*
D03*
Y78740D02*
D03*
X3746500Y200660D02*
D03*
Y78740D02*
D03*
X3609340Y317500D02*
D03*
X3422657Y435400D02*
D03*
X3421380Y317500D02*
D03*
X3609340Y200660D02*
D03*
Y78740D02*
D03*
X3421380Y200660D02*
D03*
Y78740D02*
D03*
X2860040Y685800D02*
D03*
X3247397Y435400D02*
D03*
X3246120Y317500D02*
D03*
Y571500D02*
D03*
X3059437Y435400D02*
D03*
X3246120Y200660D02*
D03*
Y78740D02*
D03*
X3058160Y200660D02*
D03*
Y78740D02*
D03*
Y685800D02*
D03*
Y571500D02*
D03*
X2860040D02*
D03*
X2861317Y435400D02*
D03*
X3058160Y317500D02*
D03*
X2860040Y78740D02*
D03*
Y317500D02*
D03*
Y200660D02*
D03*
X1696720Y4607560D02*
D03*
X1122680Y3527851D02*
D03*
X1419860Y2943860D02*
D03*
X1218400Y2185200D02*
D03*
X340360Y4937760D02*
D03*
X1036553Y2364507D02*
D03*
X619760Y3121660D02*
D03*
X355600Y4105112D02*
D03*
X558800Y1864360D02*
D03*
X546100Y1277620D02*
D03*
X774700Y137160D02*
D03*
X586740Y127000D02*
D03*
X154940Y1884680D02*
D03*
X220980Y449580D02*
D03*
X213360Y749300D02*
D03*
X190500Y261620D02*
D03*
X3462020Y4787900D02*
D03*
X1539240Y1600200D02*
D03*
X1849120Y2418080D02*
D03*
X1087120Y1846580D02*
D03*
X1628140Y2334260D02*
D03*
X1701800Y2489200D02*
D03*
X1516640Y2032000D02*
D03*
X3375660Y1922780D02*
D03*
X3899529Y4050692D02*
D03*
X3303816Y1225080D02*
D03*
X3168823Y1227620D02*
D03*
X3055620Y1236980D02*
D03*
X2961640Y1234440D02*
D03*
X2865120Y1231900D02*
D03*
X2118360Y632460D02*
D03*
X2077720Y711200D02*
D03*
X2118360Y516890D02*
D03*
X2125980Y375920D02*
D03*
X734060Y1747520D02*
D03*
X512040Y1548360D02*
D03*
X609620Y1671340D02*
D03*
X3760628Y784860D02*
D03*
X3870960D02*
D03*
X3680460Y787400D02*
D03*
X3817620Y962660D02*
D03*
X2369820Y4648200D02*
D03*
X2552700Y4668520D02*
D03*
X1003300Y2639060D02*
D03*
X3375660Y1813560D02*
D03*
X3467100Y4383500D02*
D03*
X2956560Y3939540D02*
D03*
X886460Y4897120D02*
D03*
X358140Y182880D02*
D03*
X3530600Y5080000D02*
D03*
X3647440Y5110480D02*
D03*
X3604260Y4173220D02*
D03*
X3509927Y4102579D02*
D03*
X2583180Y4551680D02*
D03*
X3484880Y4942840D02*
D03*
X683260Y2199640D02*
D03*
X1925985Y2798399D02*
D03*
X3230880Y4511040D02*
D03*
X3863340Y4828540D02*
D03*
X1368593Y2359660D02*
D03*
X1802933Y2757710D02*
D03*
X1689100Y2684780D02*
D03*
X1315050Y2594161D02*
D03*
X1036320Y2090420D02*
D03*
X1135380Y2072640D02*
D03*
X571500Y1960880D02*
D03*
X1440218Y2423600D02*
D03*
X1681480Y3434080D02*
D03*
X2063152Y3383856D02*
D03*
X1549400Y3975100D02*
D03*
X1675361Y3290339D02*
D03*
X1776616Y3430167D02*
D03*
X1856474Y3397292D02*
D03*
X1926539Y3346806D02*
D03*
X1950720Y3263900D02*
D03*
X1633220Y2936240D02*
D03*
X1366520Y2684780D02*
D03*
X1479550Y2661920D02*
D03*
X1963420Y3172460D02*
D03*
X1890088Y2876945D02*
D03*
%TF.MD5,f252e329f9980be64e8845b0106b183e*%
M02*
